<svg xmlns="http://www.w3.org/2000/svg" version="1.1" xmlns:xlink="http://www.w3.org/1999/xlink" xmlns:svgjs="http://svgjs.dev/svgjs" width="100%" height="100%" viewBox="0 0 1000 600"><rect width="1000" height="600" x="0" y="0" fill="#e9edc9"/><g><rect width="333.3333333333333" height="333.3333333333333" rx="13.333333333333334" ry="13.333333333333334" y="204.76982306391" fill="#fd5225" transform="matrix(0.6847528804424146,0,0,0.6847528804424146,0,45.65778363893254)" x="182.547607421875"/><path d="M398.8312627689868 446.4365014195815L398.8312627689868 320.0735843464426L397.75684968097704 320.0735843464426L385.102651088863 345.23275749066937L349.19934706453944 410.5630422032582L313.3258878482161 345.23275749066937L300.6418444481018 320.0735843464426L299.5674313600921 320.0735843464426L299.5674313600921 446.4365014195815L281.9589946399334 446.4365014195815L281.9589946399334 296.43649641022955L306.01390988815024 296.43649641022955L348.99043340853757 377.256236474958L350.06484649654726 377.256236474958L393.25028367293646 296.43649641022955L416.4695442971457 296.43649641022955L416.4695442971457 446.4365014195815L398.8312627689868 446.4365014195815Z " fill="#e9edc9" transform="matrix(0.6847528804424146,0,0,0.6847528804424146,0,45.65778363893254)"/><path d="M690.0586965782365 413.030998957373L690.0586965782365 314.809526800358L689.2235588839397 314.809526800358L679.3874927066665 334.36566780847414L651.4799747555828 385.1466792755752L623.5956550737849 334.36566780847414L613.7363906272258 314.809526800358L612.9012529329291 314.809526800358L612.9012529329291 413.030998957373L599.2142740541764 413.030998957373L599.2142740541764 296.436497525829L617.9120790987097 296.436497525829L651.3175868705806 359.25741075237516L652.1527245648774 359.25741075237516L685.7206202217504 296.436497525829L703.7688737262752 296.436497525829L703.7688737262752 413.030998957373L690.0586965782365 413.030998957373ZM765.7314509892386 385.4714550455795L786.6098933466579 326.8494285598032L799.8097085704042 326.8494285598032L761.2309867477504 433.0743036204955Q759.723099244159 436.92521632197514 758.2152117405676 439.5002242127235Q756.7073242369762 442.09843037275795 754.5498851933762 443.60631787634935Q752.3692478804902 445.09100711065463 749.1214901804472 445.76375691994934Q745.8505342111182 446.43650672924394 741.1876820846278 446.43650672924394L741.1876820846278 446.43650672924394L734.3209943759655 446.43650672924394L734.3209943759655 434.74457900908914L747.868783639002 434.74457900908914L754.3642990390881 416.3715497345601L722.1419030008042 326.8494285598032L735.5041061095526 326.8494285598032L756.2201605819698 385.4714550455795L760.2102628991654 399.50640796362245L761.0454005934622 399.50640796362245L765.7314509892386 385.4714550455795ZM884.6457793493847 413.030998957373L877.1295401007137 413.030998957373Q869.6133008520428 413.030998957373 866.3655431519998 409.0176983708913Q863.1177854519567 405.00439778440955 862.28264775766 398.99604603933L862.28264775766 398.99604603933L861.4475100633632 398.99604603933Q858.5941229411826 407.0226472122934 852.0754092718105 411.03594779877517Q845.5798938717246 415.02605011597086 836.5557671194622 415.02605011597086L836.5557671194622 415.02605011597086Q822.8455899714235 415.02605011597086 815.2597559148944 408.02017279159236Q807.6507235890793 401.01429546721386 807.6507235890793 388.9743937077687L807.6507235890793 388.9743937077687Q807.6507235890793 376.79530233260743 816.5820572641976 370.2765886632354Q825.536589208602 363.75787499386337 844.3967821381375 363.75787499386337L844.3967821381375 363.75787499386337L861.4475100633632 363.75787499386337L861.4475100633632 355.24411016589346Q861.4475100633632 346.05759552862895 856.4366838975825 341.20915724785044Q851.4258577318019 336.360718967072 841.0562313609503 336.360718967072L841.0562313609503 336.360718967072Q833.2152163422751 336.360718967072 827.9492092143482 339.86365762926124Q822.6832020864213 343.3897945607365 819.1802634242321 349.2357584208139L819.1802634242321 349.2357584208139L811.1536622512687 341.71951917214295Q814.6797991827439 334.69044357847844 822.3584263164171 329.7724104898419Q830.0370534500901 324.8311791319193 841.7289811702449 324.8311791319193L841.7289811702449 324.8311791319193Q857.4342094768815 324.8311791319193 866.1103621898535 332.53300453487844Q874.8097131721116 340.21163166855155 874.8097131721116 353.89861054730426L874.8097131721116 353.89861054730426L874.8097131721116 401.33907123721815L884.6457793493847 401.33907123721815L884.6457793493847 413.030998957373ZM838.7132061630622 403.68209643510636L838.7132061630622 403.68209643510636Q843.7240323288428 403.68209643510636 847.8997208003267 402.49898470151925Q852.0754092718105 401.33907123721815 855.0911842789933 399.15843392433214Q858.1069592861761 397.00099488073215 859.7772346747697 394.1476077585515Q861.4475100633632 391.3174189056569 861.4475100633632 387.9768681284698L861.4475100633632 387.9768681284698L861.4475100633632 373.7795273254246L843.7240323288428 373.7795273254246Q832.2176907629762 373.7795273254246 826.9516836350492 377.1200781026117Q821.6856765071224 380.46062887979883 821.6856765071224 386.8169546641687L821.6856765071224 386.8169546641687L821.6856765071224 390.31989332635794Q821.6856765071224 396.65302084144184 826.2789338257546 400.1791577729171Q830.8721911443869 403.68209643510636 838.7132061630622 403.68209643510636ZM917.0537615419568 413.030998957373L903.6915584332083 413.030998957373L903.6915584332083 326.8494285598032L917.0537615419568 326.8494285598032L917.0537615419568 340.88438147784615L917.7265113512512 340.88438147784615Q920.9046742434364 333.53053011417734 926.6578450263696 329.19245375769134Q932.434214078589 324.8311791319193 942.1078923708599 324.8311791319193L942.1078923708599 324.8311791319193Q955.4700954796083 324.8311791319193 963.2415156904256 333.4377370370333Q971.0129359012427 342.04429494214725 971.0129359012427 357.7495232487838L971.0129359012427 357.7495232487838L971.0129359012427 413.030998957373L957.6507327924944 413.030998957373L957.6507327924944 360.09254844667197Q957.6507327924944 336.87108089136444 938.0945917843782 336.87108089136444L938.0945917843782 336.87108089136444Q934.1044894671825 336.87108089136444 930.346369842847 337.8686064706634Q926.5882502185116 338.8661320499623 923.5724752113288 340.88438147784615Q920.556700204146 342.87943263644405 918.8168300076943 345.9648024514849Q917.0537615419568 349.05017226652575 917.0537615419568 353.2258607380096L917.0537615419568 353.2258607380096L917.0537615419568 413.030998957373ZM1011.9346829217845 413.030998957373L998.5724798130362 413.030998957373L998.5724798130362 326.8494285598032L1011.9346829217845 326.8494285598032L1011.9346829217845 340.88438147784615L1012.6074327310793 340.88438147784615Q1014.0921219653846 337.5438307006591 1016.0175783161244 334.6208487706204Q1017.9430346668642 331.69786684058164 1020.7036287119007 329.51722952769563Q1023.4642227569373 327.3365922148096 1027.1295493041287 326.0838856733645Q1030.79487585132 324.8311791319193 1035.8057020171007 324.8311791319193L1035.8057020171007 324.8311791319193Q1044.3426651143566 324.8311791319193 1051.5109303237373 328.9372727955451Q1058.702393802404 333.0201681898849 1062.205332464593 342.36907071215154L1062.205332464593 342.36907071215154L1062.5301082345973 342.36907071215154Q1064.8731334324857 335.36319338777304 1071.2990540247135 330.0971862598462Q1077.7481728862276 324.8311791319193 1088.7673507970876 324.8311791319193L1088.7673507970876 324.8311791319193Q1101.967166020834 324.8311791319193 1109.390612192361 333.4377370370333Q1116.8140583638879 342.04429494214725 1116.8140583638879 357.7495232487838L1116.8140583638879 357.7495232487838L1116.8140583638879 413.030998957373L1103.4518552551394 413.030998957373L1103.4518552551394 360.09254844667197Q1103.4518552551394 348.5630086115193 1098.9513910136511 342.71704475144185Q1094.450926772163 336.87108089136444 1084.591662325604 336.87108089136444L1084.591662325604 336.87108089136444Q1080.578361739122 336.87108089136444 1076.9826299997887 337.8686064706634Q1073.3868982604554 338.8661320499623 1070.556709407561 340.88438147784615Q1067.7265205546664 342.87943263644405 1066.0562451660728 345.9648024514849Q1064.3859697774792 349.05017226652575 1064.3859697774792 353.2258607380096L1064.3859697774792 353.2258607380096L1064.3859697774792 413.030998957373L1051.0237666687308 413.030998957373L1051.0237666687308 360.09254844667197Q1051.0237666687308 348.5630086115193 1046.5001041579567 342.71704475144185Q1041.9996399164684 336.87108089136444 1032.4651512399137 336.87108089136444L1032.4651512399137 336.87108089136444Q1028.4750489227179 336.87108089136444 1024.7865241062404 337.8686064706634Q1021.121197559049 338.8661320499623 1018.2678104368684 340.88438147784615Q1015.4376215839739 342.87943263644405 1013.6745531182362 345.9648024514849Q1011.9346829217845 349.05017226652575 1011.9346829217845 353.2258607380096L1011.9346829217845 353.2258607380096L1011.9346829217845 413.030998957373ZM1214.5251685966102 413.030998957373L1207.008929347939 413.030998957373Q1199.4926900992682 413.030998957373 1196.2449323992253 409.0176983708913Q1192.9971746991823 405.00439778440955 1192.1620370048854 398.99604603933L1192.1620370048854 398.99604603933L1191.3268993105887 398.99604603933Q1188.4735121884082 407.0226472122934 1181.954798519036 411.03594779877517Q1175.45928311895 415.02605011597086 1166.4351563666878 415.02605011597086L1166.4351563666878 415.02605011597086Q1152.724979218649 415.02605011597086 1145.13914516212 408.02017279159236Q1137.5301128363049 401.01429546721386 1137.5301128363049 388.9743937077687L1137.5301128363049 388.9743937077687Q1137.5301128363049 376.79530233260743 1146.4614465114232 370.2765886632354Q1155.4159784558276 363.75787499386337 1174.2761713853629 363.75787499386337L1174.2761713853629 363.75787499386337L1191.3268993105887 363.75787499386337L1191.3268993105887 355.24411016589346Q1191.3268993105887 346.05759552862895 1186.316073144808 341.20915724785044Q1181.3052469790275 336.360718967072 1170.935620608176 336.360718967072L1170.935620608176 336.360718967072Q1163.0946055895006 336.360718967072 1157.8285984615736 339.86365762926124Q1152.5625913336469 343.3897945607365 1149.0596526714576 349.2357584208139L1149.0596526714576 349.2357584208139L1141.0330514984942 341.71951917214295Q1144.5591884299695 334.69044357847844 1152.2378155636425 329.7724104898419Q1159.9164426973157 324.8311791319193 1171.6083704174703 324.8311791319193L1171.6083704174703 324.8311791319193Q1187.3135987241071 324.8311791319193 1195.9897514370791 332.53300453487844Q1204.689102419337 340.21163166855155 1204.689102419337 353.89861054730426L1204.689102419337 353.89861054730426L1204.689102419337 401.33907123721815L1214.5251685966102 401.33907123721815L1214.5251685966102 413.030998957373ZM1168.5925954102877 403.68209643510636L1168.5925954102877 403.68209643510636Q1173.6034215760683 403.68209643510636 1177.7791100475522 402.49898470151925Q1181.954798519036 401.33907123721815 1184.9705735262187 399.15843392433214Q1187.9863485334017 397.00099488073215 1189.656623921995 394.1476077585515Q1191.3268993105887 391.3174189056569 1191.3268993105887 387.9768681284698L1191.3268993105887 387.9768681284698L1191.3268993105887 373.7795273254246L1173.6034215760683 373.7795273254246Q1162.0970800102018 373.7795273254246 1156.8310728822748 377.1200781026117Q1151.5650657543479 380.46062887979883 1151.5650657543479 386.8169546641687L1151.5650657543479 386.8169546641687L1151.5650657543479 390.31989332635794Q1151.5650657543479 396.65302084144184 1156.1583230729802 400.1791577729171Q1160.7515803916124 403.68209643510636 1168.5925954102877 403.68209643510636ZM1246.9331507891823 413.030998957373L1233.5709476804338 413.030998957373L1233.5709476804338 326.8494285598032L1246.9331507891823 326.8494285598032L1246.9331507891823 342.71704475144185L1247.768288483479 342.71704475144185Q1250.1113136813672 336.52310685207414 1256.1196654264468 331.69786684058164Q1262.1280171715262 326.8494285598032 1272.66003142738 326.8494285598032L1272.66003142738 326.8494285598032L1277.833245478163 326.8494285598032L1277.833245478163 340.21163166855155L1269.9922304594875 340.21163166855155Q1259.1354404336296 340.21163166855155 1253.034295611406 344.29452706289135Q1246.9331507891823 348.40062072651716 1246.9331507891823 354.57136035659886L1246.9331507891823 354.57136035659886L1246.9331507891823 413.030998957373Z " fill="#fd5225" transform="matrix(0.6847528804424146,0,0,0.6847528804424146,0,45.65778363893254)"/></g></svg>